<?xml version="1.0" encoding="UTF-8"?>
<svg id="Layer_1" xmlns="http://www.w3.org/2000/svg" version="1.1" viewBox="0 0 1175.16 416.55">
  <!-- Generator: Adobe Illustrator 30.1.0, SVG Export Plug-In . SVG Version: 2.1.1 Build 136)  -->
  <defs>
    <style>
      .st0 {
        fill: none;
      }

      .st1 {
        fill: #1b75bb;
      }
    </style>
  </defs>
  <g>
    <path class="st1" d="M0,63.83C0,28.96,27.58,1.38,62.62,1.38c18.21,0,34,7.46,44.58,18.39,2.26,2.43,3.47,5.9,3.47,8.85,0,7.11-5.9,12.84-13.01,12.84-3.47,0-6.94-1.91-10.41-5.03-6.42-5.9-14.57-9.89-24.63-9.89-19.95,0-35.73,16.48-35.73,37.29s15.79,37.29,35.73,37.29c10.06,0,18.21-3.99,24.63-9.89,3.47-3.12,6.94-5.03,10.41-5.03,7.11,0,13.01,5.72,13.01,12.84,0,2.95-1.21,6.42-3.47,8.85-10.58,10.93-26.37,18.39-44.58,18.39-35.04,0-62.62-27.58-62.62-62.45Z"/>
    <path class="st1" d="M128.01,14.39c0-7.11,5.9-13.01,13.01-13.01s13.01,5.9,13.01,13.01v85.86h31.4c6.77,0,12.14,5.38,12.14,12.14s-5.38,12.14-12.14,12.14h-44.41c-7.11,0-13.01-5.9-13.01-13.01V14.39h0Z"/>
    <path class="st1" d="M289.16,6.59c3.12-3.82,6.94-5.2,10.41-5.2,7.11,0,13.01,5.9,13.01,13.01v98.87c0,7.11-5.9,13.01-13.01,13.01s-13.01-5.9-13.01-13.01v-9.54h-15.96c-6.77,0-12.14-5.38-12.14-12.14s5.38-12.14,12.14-12.14h15.96v-31.74l-62.27,74.24c-2.08,2.43-6.07,4.34-9.37,4.34-6.77,0-12.14-5.38-12.14-12.14,0-2.6.52-5.03,2.78-7.81L289.16,6.59Z"/>
    <path class="st1" d="M329.92,98.52c0-7.11,5.9-13.01,13.01-13.01,5.2,0,8.33,2.78,10.58,5.9,3.47,4.68,6.07,10.58,15.44,10.58,7.81,0,13.88-6.07,13.88-13.88s-7.29-10.93-16.31-13.88l-8.85-2.95c-13.18-4.34-26.89-12.49-26.89-35.39,0-19.6,16.83-34.52,38.16-34.52,22.9,0,37.12,16.65,37.12,25.85,0,7.11-5.9,13.01-13.01,13.01-5.03,0-7.63-2.43-10.06-5.38-3.3-4.16-6.07-9.19-14.05-9.19-6.77,0-12.14,5.38-12.14,11.97,0,7.11,6.59,10.58,13.7,12.84l7.46,2.43c14.57,4.68,30.88,11.8,30.88,36.95,0,20.82-17.52,36.43-39.9,36.43-22.72,0-39.02-17-39.02-27.76Z"/>
    <path class="st1" d="M422.72,98.52c0-7.11,5.9-13.01,13.01-13.01,5.2,0,8.33,2.78,10.58,5.9,3.47,4.68,6.07,10.58,15.44,10.58,7.81,0,13.88-6.07,13.88-13.88s-7.29-10.93-16.31-13.88l-8.85-2.95c-13.18-4.34-26.89-12.49-26.89-35.39,0-19.6,16.83-34.52,38.16-34.52,22.9,0,37.12,16.65,37.12,25.85,0,7.11-5.9,13.01-13.01,13.01-5.03,0-7.63-2.43-10.06-5.38-3.3-4.16-6.07-9.19-14.05-9.19-6.77,0-12.14,5.38-12.14,11.97,0,7.11,6.59,10.58,13.7,12.84l7.46,2.43c14.57,4.68,30.88,11.8,30.88,36.95,0,20.82-17.52,36.43-39.9,36.43-22.71,0-39.02-17-39.02-27.76Z"/>
    <path class="st1" d="M518.99,14.39c0-7.11,5.9-13.01,13.01-13.01s13.01,5.9,13.01,13.01v98.87c0,7.11-5.9,13.01-13.01,13.01s-13.01-5.9-13.01-13.01V14.39Z"/>
    <path class="st1" d="M562.35,63.83c0-34.87,27.58-62.45,62.62-62.45,18.21,0,34,7.46,44.58,18.39,2.26,2.43,3.47,5.9,3.47,8.85,0,7.11-5.9,12.84-13.01,12.84-3.47,0-6.94-1.91-10.41-5.03-6.42-5.9-14.57-9.89-24.63-9.89-19.95,0-35.73,16.48-35.73,37.29s15.79,37.29,35.73,37.29c10.06,0,18.21-3.99,24.63-9.89,3.47-3.12,6.94-5.03,10.41-5.03,7.11,0,13.01,5.72,13.01,12.84,0,2.95-1.21,6.42-3.47,8.85-10.58,10.93-26.37,18.39-44.58,18.39-35.03,0-62.62-27.58-62.62-62.45Z"/>
    <path class="st1" d="M715.52,5.2c-3.12-3.82-6.94-5.2-10.41-5.2-7.11,0-13.01,5.9-13.01,13.01v98.87c0,7.11,5.9,13.01,13.01,13.01s13.01-5.9,13.01-13.01v-9.54h15.96c6.77,0,12.14-5.38,12.14-12.14s-5.38-12.14-12.14-12.14h-15.96v-31.74l62.27,74.24c2.08,2.43,6.07,4.34,9.37,4.34,6.77,0,12.14-5.38,12.14-12.14,0-2.6-.52-5.03-2.78-7.81L715.52,5.2Z"/>
    <path class="st1" d="M808.84,14.39c0-7.11,5.9-13.01,13.01-13.01s13.01,5.9,13.01,13.01v85.86h31.4c6.77,0,12.14,5.38,12.14,12.14s-5.38,12.14-12.14,12.14h-44.41c-7.11,0-13.01-5.9-13.01-13.01V14.39h0Z"/>
    <path class="st1" d="M0,271.99c0-34.87,27.58-62.45,62.62-62.45,18.21,0,34,7.46,44.58,18.39,2.26,2.43,3.47,5.9,3.47,8.85,0,7.11-5.9,12.84-13.01,12.84-3.47,0-7.11-1.91-10.41-5.03-6.42-5.9-14.57-9.89-24.63-9.89-19.95,0-35.73,16.48-35.73,37.29s15.79,37.29,35.73,37.29c13.18,0,26.19-7.29,32.61-21.68h-24.63c-6.77,0-12.14-5.38-12.14-12.14s5.38-12.14,12.14-12.14h41.98c6.77,0,12.14,5.38,11.97,13.01-.69,27.58-26.02,58.11-61.93,58.11-35.04-.01-62.62-27.59-62.62-62.45Z"/>
    <path class="st1" d="M140.33,224.28c0-7.11,5.9-13.01,13.01-13.01h30.88c23.59,0,39.9,17.17,39.9,38.16,0,16.48-9.54,27.23-19.08,31.05l-.87.35,27.06,32.26c2.26,2.78,2.95,5.55,2.95,8.5,0,7.29-5.72,12.84-12.84,12.84-3.82,0-7.46-1.56-10.06-4.68l-37.47-44.58c-1.91-2.26-3.99-5.55-3.99-10.06,0-6.59,5.2-11.8,11.62-11.8h1.91c7.63,0,13.88-6.24,13.88-13.88s-6.24-13.88-13.88-13.88h-17v85.86c0,7.11-5.9,13.01-13.01,13.01s-13.01-5.9-13.01-13.01v-97.13h0Z"/>
    <path class="st1" d="M325.58,214.74c3.12-3.82,6.94-5.2,10.41-5.2,7.11,0,13.01,5.9,13.01,13.01v98.87c0,7.11-5.9,13.01-13.01,13.01s-13.01-5.9-13.01-13.01v-9.54h-15.96c-6.77,0-12.14-5.38-12.14-12.14s5.38-12.14,12.14-12.14h15.96v-31.74l-62.27,74.24c-2.08,2.43-6.07,4.34-9.37,4.34-6.77,0-12.14-5.38-12.14-12.14,0-2.6.52-5.03,2.78-7.81l83.6-99.75Z"/>
    <path class="st1" d="M369.81,224.28c0-7.11,5.9-13.01,13.01-13.01h29.14c23.59,0,39.9,17.17,39.9,38.16s-16.31,38.16-39.9,38.16h-.52c-6.77,0-12.14-5.38-12.14-12.14s5.38-12.14,12.14-12.14c7.46-.17,13.53-6.24,13.53-13.88s-6.24-13.88-13.88-13.88h-15.26v85.86c0,7.11-5.9,13.01-13.01,13.01s-13.01-5.9-13.01-13.01v-97.13h0Z"/>
    <path class="st1" d="M465.74,222.55c0-7.11,5.9-13.01,13.01-13.01s13.01,5.9,13.01,13.01v37.29h41.63v-37.29c0-7.11,5.9-13.01,13.01-13.01s13.01,5.9,13.01,13.01v98.87c0,7.11-5.9,13.01-13.01,13.01s-13.01-5.9-13.01-13.01v-37.29h-41.63v37.29c0,7.11-5.9,13.01-13.01,13.01s-13.01-5.9-13.01-13.01v-98.87Z"/>
    <path class="st1" d="M580.22,222.55c0-7.11,5.9-13.01,13.01-13.01s13.01,5.9,13.01,13.01v98.87c0,7.11-5.9,13.01-13.01,13.01s-13.01-5.9-13.01-13.01v-98.87Z"/>
    <path class="st1" d="M623.58,271.99c0-34.87,27.58-62.45,62.62-62.45,18.21,0,34,7.46,44.58,18.39,2.26,2.43,3.47,5.9,3.47,8.85,0,7.11-5.9,12.84-13.01,12.84-3.47,0-6.94-1.91-10.41-5.03-6.42-5.9-14.57-9.89-24.63-9.89-19.95,0-35.73,16.48-35.73,37.29s15.79,37.29,35.73,37.29c10.06,0,18.21-3.99,24.63-9.89,3.47-3.12,6.94-5.03,10.41-5.03,7.11,0,13.01,5.72,13.01,12.84,0,2.95-1.21,6.42-3.47,8.85-10.58,10.93-26.37,18.39-44.58,18.39-35.03-.01-62.62-27.59-62.62-62.45Z"/>
    <path class="st1" d="M746.4,306.68c0-7.11,5.9-13.01,13.01-13.01,5.2,0,8.33,2.78,10.58,5.9,3.47,4.68,6.07,10.58,15.44,10.58,7.81,0,13.88-6.07,13.88-13.88s-7.29-10.93-16.31-13.88l-8.85-2.95c-13.18-4.34-26.89-12.49-26.89-35.39,0-19.6,16.83-34.52,38.16-34.52,22.9,0,37.12,16.65,37.12,25.85,0,7.11-5.9,13.01-13.01,13.01-5.03,0-7.63-2.43-10.06-5.38-3.3-4.16-6.07-9.19-14.05-9.19-6.77,0-12.14,5.38-12.14,11.97,0,7.11,6.59,10.58,13.7,12.84l7.46,2.43c14.57,4.68,30.88,11.8,30.88,36.95,0,20.82-17.52,36.43-39.9,36.43-22.72,0-39.02-17.01-39.02-27.76Z"/>
    <path class="st1" d="M886.03,222.55c0-7.11,5.9-13.01,13.01-13.01s13.01,5.9,13.01,13.01v85.86h31.4c6.77,0,12.14,5.38,12.14,12.14s-5.38,12.14-12.14,12.14h-44.41c-7.11,0-13.01-5.9-13.01-13.01v-97.13h0Z"/>
    <path class="st1" d="M991.15,214.74c-3.12-3.82-6.94-5.2-10.41-5.2-7.11,0-13.01,5.9-13.01,13.01v98.87c0,7.11,5.9,13.01,13.01,13.01s13.01-5.9,13.01-13.01v-9.54h15.96c6.77,0,12.14-5.38,12.14-12.14s-5.38-12.14-12.14-12.14h-15.96v-31.74l62.27,74.24c2.08,2.43,6.07,4.34,9.37,4.34,6.77,0,12.14-5.38,12.14-12.14,0-2.6-.52-5.03-2.78-7.81l-83.6-99.75Z"/>
    <path class="st1" d="M1091.41,224.28c0-7.11,5.9-13.01,13.01-13.01h33.31c19.08,0,34.69,15.61,34.69,34.69,0,10.06-4.34,20.64-16.31,25.33,13.01,4.68,18.04,15.96,18.04,26.71,0,19.08-15.61,34.69-34.69,34.69h-35.04c-7.11,0-13.01-5.9-13.01-13.01v-95.4ZM1135.12,308.41c6.77,0,12.14-5.38,12.14-12.14s-5.38-12.14-12.14-12.14h-2.08c-6.77,0-12.14-5.38-12.14-12.14s5.38-12.14,12.14-12.14h.35c6.77,0,12.14-5.38,12.14-12.14s-5.38-12.14-12.14-12.14h-15.96v72.85h17.69Z"/>
  </g>
  <g>
    <rect class="st0" x="13.9" y="386.58" width="1161.26" height="34.14"/>
    <path d="M15.57,409.9c0-1.71,1.42-3.12,3.12-3.12,1.25,0,2,.67,2.54,1.42.83,1.12,1.46,2.54,3.7,2.54,1.87,0,3.33-1.46,3.33-3.33s-1.75-2.62-3.91-3.33l-2.12-.72c-3.16-1.04-6.45-3-6.45-8.49,0-4.7,4.04-8.28,9.16-8.28,5.49,0,8.91,4,8.91,6.2,0,1.71-1.42,3.12-3.12,3.12-1.21,0-1.83-.58-2.41-1.29-.79-1-1.46-2.21-3.37-2.21-1.62,0-2.91,1.29-2.91,2.87,0,1.71,1.58,2.54,3.29,3.08l1.79.58c3.5,1.12,7.41,2.83,7.41,8.87,0,5-4.2,8.74-9.57,8.74-5.48.01-9.39-4.07-9.39-6.65Z"/>
    <path d="M42.67,392.83h-4.62c-1.62,0-2.91-1.29-2.91-2.91s1.29-2.91,2.91-2.91h15.48c1.62,0,2.91,1.29,2.91,2.91s-1.29,2.91-2.91,2.91h-4.62v20.6c0,1.71-1.42,3.12-3.12,3.12s-3.12-1.42-3.12-3.12c0,0,0-20.6,0-20.6Z"/>
    <path d="M59.36,404.94v-15.24c0-1.71,1.42-3.12,3.12-3.12s3.12,1.42,3.12,3.12v15.66c0,3.58,2.21,5.37,4.95,5.37s5.04-1.79,5.04-5.37v-15.65c0-1.71,1.42-3.12,3.12-3.12s3.12,1.42,3.12,3.12v15.24c0,7.08-4.95,11.61-11.28,11.61-6.23,0-11.19-4.54-11.19-11.62Z"/>
    <path d="M86.84,390.12c0-1.71,1.42-3.12,3.12-3.12h7.16c8.99,0,15.03,6.45,15.03,14.57s-6.04,14.57-15.03,14.57h-7.16c-1.71,0-3.12-1.42-3.12-3.12v-22.9ZM97.12,410.31c5.37,0,8.57-3.87,8.57-8.74s-3.21-8.74-8.57-8.74h-4.04v17.48h4.04Z"/>
    <path d="M116.32,390.12c0-1.71,1.42-3.12,3.12-3.12h10.66c1.62,0,2.91,1.29,2.91,2.91s-1.29,2.91-2.91,2.91h-7.53v5.83h7.53c1.62,0,2.91,1.29,2.91,2.91s-1.29,2.91-2.91,2.91h-7.53v5.83h7.53c1.62,0,2.91,1.29,2.91,2.91s-1.29,2.91-2.91,2.91h-10.66c-1.71,0-3.12-1.42-3.12-3.12v-22.88Z"/>
    <path d="M137.17,389.88c0-1.83,1.42-3.29,3.25-3.29,1.04,0,2,.5,2.5,1.12l11.53,13.78v-11.78c0-1.71,1.42-3.12,3.12-3.12s3.12,1.42,3.12,3.12v23.73c0,1.71-1.42,3.12-3.12,3.12s-3.12-1.42-3.12-3.12v-2.25l-11.03-13.15v15.4c0,1.71-1.42,3.12-3.12,3.12s-3.12-1.42-3.12-3.12v-23.56h-.01Z"/>
    <path d="M171.77,392.83h-4.62c-1.62,0-2.91-1.29-2.91-2.91s1.29-2.91,2.91-2.91h15.48c1.62,0,2.91,1.29,2.91,2.91s-1.29,2.91-2.91,2.91h-4.62v20.6c0,1.71-1.42,3.12-3.12,3.12s-3.12-1.42-3.12-3.12v-20.6h0Z"/>
    <path d="M217.52,387.84c.75-.92,1.54-1.25,2.5-1.25,1.71,0,3.12,1.42,3.12,3.12v10.28l10.2-12.16c.75-.92,1.58-1.25,2.5-1.25,1.71,0,3.12,1.42,3.12,3.12v23.73c0,1.71-1.42,3.12-3.12,3.12s-3.12-1.42-3.12-3.12v-15.77l-9.57,11.45v4.33c0,1.71-1.42,3.12-3.12,3.12s-3.12-1.42-3.12-3.12v-15.73l-14.94,17.82c-.54.67-1.46,1.04-2.25,1.04-1.62,0-2.91-1.29-2.91-2.91,0-.62.12-1.21.67-1.87l20.04-23.95Z"/>
    <path d="M262.6,387.84c.75-.92,1.67-1.25,2.5-1.25,1.71,0,3.12,1.42,3.12,3.12v23.73c0,1.71-1.42,3.12-3.12,3.12s-3.12-1.42-3.12-3.12v-2.29h-3.83c-1.62,0-2.91-1.29-2.91-2.91s1.29-2.91,2.91-2.91h3.83v-7.62l-14.94,17.82c-.5.58-1.46,1.04-2.25,1.04-1.62,0-2.91-1.29-2.91-2.91,0-.62.12-1.21.67-1.87l20.05-23.95Z"/>
    <path d="M273.22,390.12c0-1.71,1.42-3.12,3.12-3.12h7.16c8.99,0,15.03,6.45,15.03,14.57s-6.04,14.57-15.03,14.57h-7.16c-1.71,0-3.12-1.42-3.12-3.12v-22.9ZM283.5,410.31c5.37,0,8.57-3.87,8.57-8.74s-3.21-8.74-8.57-8.74h-4.04v17.48h4.04Z"/>
    <path d="M302.7,390.12c0-1.71,1.42-3.12,3.12-3.12h10.66c1.62,0,2.91,1.29,2.91,2.91s-1.29,2.91-2.91,2.91h-7.53v5.83h7.53c1.62,0,2.91,1.29,2.91,2.91s-1.29,2.91-2.91,2.91h-7.53v5.83h7.53c1.62,0,2.91,1.29,2.91,2.91s-1.29,2.91-2.91,2.91h-10.66c-1.71,0-3.12-1.42-3.12-3.12v-22.88Z"/>
  </g>
</svg>